<svg width="61" height="61" viewBox="0 0 61 61" fill="none" xmlns="http://www.w3.org/2000/svg">
<path d="M26.9367 5.10876L49.8117 10.1921C50.0996 10.2497 50.3588 10.4052 50.5451 10.6322C50.7313 10.8593 50.8332 11.1438 50.8334 11.4375V49.5625C50.8332 49.8562 50.7313 50.1407 50.5451 50.3678C50.3588 50.5948 50.0996 50.7504 49.8117 50.8079L26.9367 55.8912C26.7524 55.9281 26.5622 55.9236 26.3798 55.8781C26.1975 55.8326 26.0275 55.7472 25.8821 55.628C25.7367 55.5089 25.6196 55.359 25.5391 55.1892C25.4587 55.0194 25.4169 54.8338 25.4167 54.6458V6.35417C25.4169 6.16623 25.4587 5.98065 25.5391 5.8108C25.6196 5.64096 25.7367 5.49108 25.8821 5.37196C26.0275 5.25284 26.1975 5.16744 26.3798 5.12193C26.5622 5.07642 26.7524 5.07192 26.9367 5.10876ZM22.8751 10.1667V50.8333H12.073C11.6124 50.8333 11.1673 50.6665 10.8201 50.3637C10.473 50.0609 10.2472 49.6427 10.1845 49.1863L10.1667 48.9271V12.0729C10.1668 11.6123 10.3336 11.1672 10.6364 10.8201C10.9391 10.4729 11.3574 10.2471 11.8137 10.1845L12.073 10.1667H22.8751ZM33.0417 27.9583C32.3677 27.9583 31.7212 28.2261 31.2445 28.7028C30.7679 29.1794 30.5001 29.8259 30.5001 30.5C30.5001 31.1741 30.7679 31.8206 31.2445 32.2972C31.7212 32.7739 32.3677 33.0417 33.0417 33.0417C33.7158 33.0417 34.3623 32.7739 34.839 32.2972C35.3156 31.8206 35.5834 31.1741 35.5834 30.5C35.5834 29.8259 35.3156 29.1794 34.839 28.7028C34.3623 28.2261 33.7158 27.9583 33.0417 27.9583Z" fill="black"/>
</svg>
