<svg width="58" height="58" viewBox="0 0 58 58" fill="none" xmlns="http://www.w3.org/2000/svg">
<path d="M31.4167 38.6667V41.0833C31.4167 43.0062 30.6528 44.8502 29.2932 46.2099C27.9336 47.5695 26.0895 48.3333 24.1667 48.3333H14.5C12.5772 48.3333 10.7331 47.5695 9.37348 46.2099C8.01384 44.8502 7.25 43.0062 7.25 41.0833V16.9167C7.25 14.9939 8.01384 13.1498 9.37348 11.7902C10.7331 10.4305 12.5772 9.66669 14.5 9.66669H24.1667C26.0895 9.66669 27.9336 10.4305 29.2932 11.7902C30.6528 13.1498 31.4167 14.9939 31.4167 16.9167V19.3334M41.0833 38.6667L50.75 29L41.0833 38.6667ZM50.75 29L41.0833 19.3334L50.75 29ZM50.75 29H16.9167H50.75Z" stroke="white" stroke-width="4" stroke-linecap="round" stroke-linejoin="round"/>
</svg>
